<?xml version="1.0" encoding="UTF-8"?>
<svg viewBox="0 0 514 594" version="1.1" xmlns="http://www.w3.org/2000/svg" xmlns:xlink="http://www.w3.org/1999/xlink">
    <title>Bosch/Office/People/female-working-on-laptop-purple</title>
    <g id="Bosch/Office/People/female-working-on-laptop-purple" stroke="none" stroke-width="1" fill="none" fill-rule="evenodd">
        <g id="female-working-on-laptop" transform="translate(0.000000, 0.960989)">
            <path d="M407.19,80.2690112 C403.381631,80.2690112 399.804832,81.1490112 396.46,81.1490112 C396.17,83.7990112 395.82,86.7190112 395.53,89.5090112 C400.546483,87.1386591 403.543269,84.8890112 407.19,80.2690112 Z" id="Path" fill="#9E2896" fill-rule="nonzero"></path>
            <path d="M457.13,75.4690112 C457.13,75.0290112 457.21,74.4690112 457.21,74.0790112 C457.206407,61.72121 448.010638,51.2956251 435.75,49.7490112 C437.672499,42.337885 437.568888,34.5463955 435.45,27.1890112 C428.76,1.61901119 406.28,-3.09098881 392.24,1.61901119 C385.18,3.96901119 370.93,11.5390112 372.54,26.2390112 C365.437293,36.2464217 366.922356,49.9811011 376,58.2390112 C376.769266,58.932031 377.606893,59.5451738 378.5,60.0690112 C378.28,59.1890112 377.98,58.3090112 377.76,57.3590112 C375.589116,48.9444149 374.358257,40.3149889 374.09,31.6290112 C377.76,38.6190112 386.847357,44.9390112 419.87,44.8590112 C420.02,44.8586478 420.17,44.8590112 420.24,44.9390112 C422.59,40.7490112 427.52,33.7690112 431.92,38.6190112 C436.7,43.8290112 429.13,55.1490112 425.46,59.9990112 C425.310773,60.1523809 425.185986,60.3277584 425.09,60.5190112 L429.35,84.1090112 L434.28,111.299011 L421.56,111.299011 C424.696427,126.056847 438.243231,136.235807 453.290926,135.141375 C468.33862,134.046944 480.270001,122.014933 481.238016,106.958577 C482.206031,91.9022216 471.913657,78.4413839 457.13,75.4290112 L457.13,75.4690112 Z" id="Path" fill="#F0DCEE" fill-rule="nonzero"></path>
            <polygon id="Path" fill="#43464A" points="70.92 591.229011 80.77 399.489011 166.82 399.489011 176.67 591.229011 189.09 591.229011 172.85 277.429011 160.43 277.429011 166.09 386.929011 81.5 386.929011 87.16 277.429011 74.74 277.429011 58.5 591.229011"></polygon>
            <path d="M108,547.999011 L108.07,548.219011 C110.038359,555.921014 115.350732,562.337687 122.55,565.709011 L177.37,591.359011 L184.87,560.199011 L170.46,553.439011 L108,547.999011 Z" id="Path" fill="#C535BC" fill-rule="nonzero"></path>
            <path d="M493.560022,355.469011 L409.42,355.469011 L325.049962,355.179011 C325.039355,360.815466 327.273716,366.22413 331.259298,370.209713 C335.244881,374.195295 340.653545,376.429656 346.29,376.419011 L350,376.419011 L338.2,590.199011 L351.65,590.199011 L363.48,376.419011 L414.56,376.419011 L414.56,376.929011 L455.27,376.789011 L467.11,590.719011 L480.7,590.719011 L468.8,376.419011 L472.69,376.419011 C484.235986,376.391427 493.57659,367.015018 493.560022,355.469011 Z" id="Path" fill="#D0D4D8"></path>
            <path d="M302.63,539.639011 L286.54,544.639011 L245.54,588.289011 L245.76,588.359011 C253.006808,591.595625 261.328422,591.382439 268.4,587.779011 L317.34,562.279011 L302.63,539.639011 Z" id="Path" fill="#C535BC" fill-rule="nonzero"></path>
            <path d="M429.33,84.1490112 L425.07,60.5590112 C425.209649,60.3978854 425.333547,60.2237573 425.44,60.0390112 C429.11,55.1890112 436.68,43.8690112 431.9,38.6590112 C427.49,33.8790112 422.57,40.7890112 420.22,44.9790112 C420.07,44.9790112 420,44.8990112 419.85,44.8990112 C386.78,44.8990112 377.08,37.3290112 374.07,31.6690112 C374.367152,40.3524654 375.597564,48.978759 377.74,57.3990112 C377.96,58.3990112 378.26,59.2290112 378.48,60.1090112 C382.08,72.9790112 384.94,79.1090112 384.94,79.1090112 C388.663708,80.2662382 392.516323,80.9581639 396.41,81.1690112 C400.010837,81.3882086 403.624485,81.0884746 407.14,80.2790112 C403.673137,83.8198037 399.772152,86.907664 395.53,89.4690112 C394.2,100.639011 392.95,111.219011 392.95,111.219011 L434.18,111.219011 L429.33,84.1090112 L429.33,84.1490112 Z" id="Path" fill="#E48CDD" fill-rule="nonzero"></path>
            <path d="M439,274.769011 L378.37,266.899011 C378.37,266.899011 377.2,263.449011 375.14,257.639011 C337,282.259011 278.74,286.449011 238.47,313.499011 L240.6,323.639011 C261.91,316.139011 307.11328,303.463828 345.45328,297.143828 C386.60328,290.453828 422.69,279.179011 439,274.769011 Z M258.8,360.239011 C258.8,375.500522 258.8,391.190842 258.36,408.669011 L286.59,544.669011 L302.82,539.949011 C304.59,482.189011 315.99,405.479011 298.42,355.949011 C279.78,353.656471 266.549869,355.179011 258.75,360.239011 L258.8,360.239011 Z" id="Shape" fill="#340731" fill-rule="nonzero"></path>
            <path d="M439.14,274.649011 C422.83,279.059011 386.97,288.179011 345.81,294.859011 C307.45,301.179011 262.18,316.029011 240.87,323.519011 C233.15,326.239011 228.59,327.929011 228.59,327.929011 L170.54,553.549011 L184.94,560.309011 C214.63,511.809011 249.25,460.359011 258.58,408.549011 C261.44,392.389011 261.96,376.219011 259.02,360.119011 C266.88,356.299011 280.26,355.569011 298.63,356.009011 C322.63,356.519011 355.07,358.949011 395.27,358.949011 C460.16,358.949011 475.16,323.949011 462.07,275.899011 L461.07,275.779011 L439.14,274.649011 Z M352.14,191.829011 L332.6,256.379011 L370.03,256.149011 C370.03,256.149011 370.74,254.369011 372.72,249.889011 C368.02,236.439011 361.11,216.819011 354.35,198.589011 C353.54,196.239011 352.73,194.029011 352.14,191.829011 Z M378.14,114.299011 C367.452663,116.731269 359.345779,125.461148 357.71,136.299011 L355.65,158.129011 C358.65,153.499011 362.65,148.869011 367.26,143.359011 L368.36,142.029011 C371.6,138.139011 374.36,134.539011 376.89,131.299011 C381.809722,124.903613 386.194534,118.114011 390,110.999011 L378.17,114.309011 L378.14,114.299011 Z" id="Shape" fill="#551151" fill-rule="nonzero"></path>
            <path d="M456.89,111.409011 C452.19,110.529011 441.02,105.749011 437.71,102.409011 C433.45,97.9290112 433.37,96.6090112 433.37,96.6090112 L393.84,98.6590112 C393.84,98.6590112 393.98,102.259011 389.65,110.939011 C385.91993,118.08512 381.541548,124.873619 376.57,131.219011 C374.07,134.529011 371.27,138.129011 368.04,141.949011 L366.94,143.269011 C362.805285,147.964456 358.929538,152.881747 355.33,157.999011 C349.330739,167.259011 347.24,176.299011 351.8,191.809011 C352.39,193.939011 353.2,196.219011 354.08,198.639011 C360.76,216.869011 367.67,236.489011 372.45,249.939011 C373.41,252.732345 374.293333,255.232345 375.1,257.439011 C377.1,263.169011 378.33,266.699011 378.33,266.699011 L439,274.559011 L461.78,277.499011 L461.93,275.739011 L472,146.469011 C473.17,128.759011 474.35,114.789011 456.93,111.409011 L456.89,111.409011 Z" id="Path" fill="#551151" fill-rule="nonzero"></path>
            <path d="M433.67,272.799011 L460.76,277.359011 L461.34,276.939011 L461.66,276.659011 L471.81,146.539011 C473.21,128.829011 474.38,114.939011 456.96,111.479011 L433.67,272.799011 Z" id="Path" fill="#340731"></path>
            <path d="M262.66,181.209011 L299.11,256.609011 L305.28,256.609011 L268.83,181.209011 C267.29167,177.985462 264.021566,175.948476 260.45,175.988417 L254.28,175.988417 C257.842583,175.980301 261.097066,178.007556 262.66,181.209011 Z" id="Path" fill="#71767C" fill-rule="nonzero"></path>
            <path d="M305.21,256.479011 L299.11,256.479011 L262.66,181.079011 C261.119741,177.857188 257.850868,175.820969 254.28,175.858487 L145.66,175.858487 C143.200833,175.848319 140.839298,176.820489 139.100388,178.5594 C137.361478,180.29831 136.389308,182.659844 136.399731,185.119011 C136.389018,186.509496 136.714976,187.881953 137.35,189.119011 L174.17,265.409018 L389.79,265.409018 C391.62346,265.41167 393.382591,264.684508 394.679044,263.388055 C395.975497,262.091602 396.702659,260.332471 396.700007,258.499011 L396.700007,255.999011 L305.21,256.439011 L305.21,256.479011 Z" id="Path" fill="#43464A" fill-rule="nonzero"></path>
            <polygon id="Path" fill="#8A9097" fill-rule="nonzero" points="0 264.859011 273.53 264.859011 273.53 277.429011 0 277.429011"></polygon>
            <polygon id="Path" fill="#43464A" fill-rule="nonzero" points="46.08 221.869011 75.4 221.869011 75.4 265.369011 46.08 265.369011"></polygon>
            <path d="M273.46,264.859011 L273.46,277.429011 L328.46,277.429011 L312.22,591.229011 L324.79,591.229011 L334.71,399.489011 L422.38,399.489011 L432.3,591.229011 L444.72,591.229011 L428.48,277.429011 L479.85,277.429011 L479.85,264.859011 L273.46,264.859011 Z M335.46,386.929011 L341.12,277.429011 L416.12,277.429011 L421.78,386.929011 L335.46,386.929011 Z" id="Shape" fill="#C1C7CC" fill-rule="nonzero"></path>
            <path d="M513.92,230.099011 L480,133.749011 C475.52,118.389011 467.65,112.149011 455.09,111.039011 C444.87,121.699011 442.67,145.509011 443.7,156.609011 C446.27,185.419011 463.83,216.279011 472.28,229.609011 C493.34,229.659011 510.61,229.879011 513.92,230.099011 Z" id="Path" fill="#791D73" fill-rule="nonzero"></path>
            <path d="M513.36,229.939011 C510.13,229.639011 492.78,229.499011 471.84,229.349011 C434.28,229.129011 385.27,229.049011 385.27,229.049011 L353.52,223.839011 L354.52,255.729011 L362.97,255.659011 C362.97,255.659011 382.97,246.989011 384.73,247.349011 C430.61,258.299011 511.74,283.999011 514,229.939011 C514,230.009011 513.78,230.009011 513.41,229.939011 L513.36,229.939011 Z" id="Path" fill="#E48CDD" fill-rule="nonzero"></path>
            <path d="M327.58,236.919011 C327.58,236.919011 326.33,241.989011 332.94,250.149011 C339.55,258.309011 354.47,255.729011 354.47,255.729011 L353.47,223.839011 L327.58,236.919011 Z" id="Path" fill="#9E2896" fill-rule="nonzero"></path>
        </g>
    </g>
</svg>