<?xml version="1.0" encoding="utf-8"?>
<!-- Generator: Adobe Illustrator 24.0.1, SVG Export Plug-In . SVG Version: 6.00 Build 0)  -->
<svg version="1.1" id="Icon_x5F_contour" xmlns="http://www.w3.org/2000/svg" xmlns:xlink="http://www.w3.org/1999/xlink" x="0px"
	 y="0px" viewBox="0 0 192 192" style="enable-background:new 0 0 192 192;" xml:space="preserve">
<path d="M97.75342,159.1499c-7.21631,0-14.48438-1.22217-21.48633-3.75342c-16.83789-6.08643-30.00342-18.47949-37.07178-34.89551
	c-7.06836-16.4165-7.02344-34.49756,0.12598-50.9126c10.68213-24.5249,35.88184-39.90137,62.70947-38.25977l11.64746,0.7124
	l-9.63525,6.58301c-9.13037,6.23828-15.82861,15.1123-19.37061,25.66309c-8.08691,24.08887,3.64258,51.31641,26.70361,61.98633
	c10.00391,4.62793,20.95654,5.88086,31.67188,3.61914l11.41846-2.40869l-7.53955,8.90723
	C134.49414,151.07764,116.2959,159.1499,97.75342,159.1499z M90.37402,39.74658
	c-19.08057,2.66113-35.875,15.02881-43.71777,33.03613c-6.25781,14.3667-6.29785,30.18994-0.11279,44.5542
	c6.18457,14.36426,17.70654,25.20898,32.44336,30.53613c18.33105,6.62744,38.76221,2.99268,53.79688-8.88232
	c-8.48145-0.00684-16.87842-1.80713-24.76709-5.45654c-13.02539-6.02637-23.36182-16.68799-29.10498-30.02002
	c-5.74365-13.33203-6.39111-28.16748-1.82324-41.77295C79.89404,53.38379,84.41162,45.93408,90.37402,39.74658z"/>
<g>
</g>
<g>
</g>
<g>
</g>
<g>
</g>
<g>
</g>
<g>
</g>
<g>
</g>
<g>
</g>
<g>
</g>
<g>
</g>
<g>
</g>
<g>
</g>
<g>
</g>
<g>
</g>
<g>
</g>
</svg>
