<?xml version="1.0" encoding="UTF-8"?>
<svg width="377px" height="587px" viewBox="0 0 517 587" version="1.1" xmlns="http://www.w3.org/2000/svg" xmlns:xlink="http://www.w3.org/1999/xlink">
    <title>Bosch/Office/People/male-working-on-laptop-turquoise</title>
    <g id="Bosch/Office/People/male-working-on-laptop-turquoise" stroke="none" stroke-width="1" fill="none" fill-rule="evenodd">
        <g id="male-working-on-laptop" transform="translate(0.929941, 0.318906)">
            <path d="M406.62,82.7910941 C403.269527,83.8648356 399.778012,84.4343973 396.26,84.4810941 C396.19,87.1310941 396.04,89.9210941 395.97,92.7110941 C399.96409,89.9158401 403.548646,86.5769869 406.62,82.7910941 L406.62,82.7910941 Z" id="Path" fill="#8DD2CD" fill-rule="nonzero"></path>
            <path d="M439.33,32.0010941 C437.42,20.8310941 423.38,15.0010941 423.38,15.0010941 C420.88,-3.99890591 397.73,4.34109409 397.73,4.34109409 C397.73,4.34109409 379.06,-3.37890591 370.39,1.77109409 C361.72,6.92109409 369.39,18.8210941 366.28,23.6010941 C363.17,28.3810941 362.6,35.2110941 362.6,35.2110941 C362.6,35.2110941 361.94,50.2710941 374.36,56.0010941 C372.852248,50.3097693 371.772566,44.513581 371.13,38.6610941 C376.561266,40.2293112 382.303609,40.3807878 387.81,39.1010941 C401.19,35.8710941 412.94,26.0010941 412.94,26.0010941 C412.94,26.0010941 414.05,41.8010941 415.59,47.3110941 C415.74,47.7510941 415.88,48.1910941 416.03,48.7110941 C418.82,43.4910941 423.45,37.0210941 427.49,40.8410941 C432.79,45.9110941 425,58.5510941 422.13,62.8410941 C422.57,63.7910941 422.87,64.3810941 422.87,64.3810941 C422.87,64.3810941 441.31,43.1410941 439.33,32.0010941 Z" id="Path" fill="#419E98" fill-rule="nonzero"></path>
            <path d="M434.84,110.831094 L422.84,64.3110941 C422.84,64.3110941 422.54,63.7210941 422.1,62.7710941 C424.97,58.5010941 432.83,45.7710941 427.46,40.7710941 C423.46,36.9510941 418.79,43.4210941 416,48.6410941 C415.85,48.1210941 415.71,47.6410941 415.56,47.2410941 C414.05,41.6710941 412.94,26.0010941 412.94,26.0010941 C412.94,26.0010941 401.19,35.9210941 387.81,39.1510941 C382.300096,40.3955753 376.566631,40.2443329 371.13,38.7110941 C371.789941,44.5925491 372.893078,50.4157721 374.43,56.1310941 C375.02,58.3310941 375.68,60.6110941 376.49,62.8910941 C381.34,76.7810941 385.02,83.3910941 385.02,83.3910941 C388.701922,84.2568044 392.478566,84.6532848 396.26,84.5710941 C399.781482,84.5653263 403.279244,83.9947455 406.62,82.8810941 C403.514306,86.589095 399.945089,89.8827228 396,92.6810941 C395.56,103.481094 395,113.771094 395,113.771094 L434.83,110.831094 L434.84,110.831094 Z" id="Path" fill="#B6EDE8" fill-rule="nonzero"></path>
            <path d="M303.43,258.351094 L351.93,261.881094 L365.82,225.501094 L357.07,160.391094 C355.38,150.101094 353.66,140.061094 355.5,131.601094 L303.43,258.351094 Z" id="Path" fill="#419E98" fill-rule="nonzero"></path>
            <path d="M477.25,122.221094 L477.32,116.411094 L432.49,94.4110941 L393.39,97.2010941 L364.73,117.491094 C359.820136,120.810719 356.414562,125.929858 355.25,131.741094 C353.42,140.191094 355.33,150.121094 356.94,160.331094 L365.69,225.441094 L365.69,225.661094 L372.45,270.271094 L378.92,273.431094 L379.28,273.291094 L452.7,302.761094 L457.48,174.881094 L477.25,122.191094 L477.25,122.221094 Z" id="Path" fill="#66B8B2" fill-rule="nonzero"></path>
            <path d="M478.13,119.871094 L477.25,122.221094 L457.4,175.001094 L452.63,302.871094 L474.9,311.871094 C501.72,192.371094 478.13,119.871094 478.13,119.871094 Z" id="Path" fill="#419E98" fill-rule="nonzero"></path>
            <path d="M490.84,350.771094 L407.21,350.771094 L323.43,350.481094 C323.435512,361.840927 332.640172,371.050061 344,371.061094 L348,371.061094 L336.15,584.401094 L349.52,584.401094 L361.35,371.571094 L412.58,371.571094 L453.07,371.431094 L464.9,584.431094 L477.9,584.431094 L466.08,371.061094 L470,371.061094 C481.505721,371.077678 490.847928,361.766805 490.87,350.261094 L490.84,350.771094 Z" id="Path" fill="#D0D4D8"></path>
            <polygon id="Path" fill="#43464A" points="70.26 585.001094 80.1 394.061094 165.72 394.061094 175.57 585.001094 187.92 585.001094 171.75 272.511094 159.4 272.511094 164.99 381.511094 80.77 381.511094 86.42 272.511094 74.08 272.511094 57.91 585.001094"></polygon>
            <path d="M378.92,273.461094 L372.45,270.301094 L360.54,273.101094 L210.18,308.371094 L185.56,551.181094 L218.27,560.661094 C218.27,560.661094 279.48,399.001094 254.42,358.861094 C257,358.561094 259.86,358.271094 262.95,357.981094 L262.95,321.904876 L378.92,273.461094 Z" id="Path" fill="#053634" fill-rule="nonzero"></path>
            <path d="M126.4,574.111094 L126.55,574.331094 C132.058776,581.069098 140.296723,584.984416 149,585.001094 L224.77,585.001094 L218.15,560.601094 L185.45,551.121094 L126.36,574.121094 L126.4,574.111094 Z" id="Path" fill="#02201E" fill-rule="nonzero"></path>
            <path d="M379.19,273.341094 L378.92,273.461094 L259.42,318.591094 C285.286641,322.697267 308.647957,331.869175 316.42,360.401094 C418.57,340.561094 472.88,367.601094 474.94,311.751094 L452.67,302.751094 L379.32,273.281094 L379.19,273.341094 Z" id="Path" fill="#0A4F4B" fill-rule="nonzero"></path>
            <path d="M259.42,318.591094 L263,358.001094 L284.46,551.941094 L288.28,553.481094 L313.49,562.481094 C324.95,453.131094 325.61,393.381094 316.43,360.311094 C307,327.261094 287.79,321.001094 259.42,318.591094 Z" id="Path" fill="#116864" fill-rule="nonzero"></path>
            <path d="M284.41,551.921094 L241.41,574.111094 L241.55,574.331094 C247.070767,581.081486 255.329528,584.997974 264.05,585.001094 L318.51,585.001094 L314,562.721094 L313.41,562.501094 L284.41,551.921094 Z" id="Path" fill="#02201E" fill-rule="nonzero"></path>
            <path d="M513.09,257.941094 L514.09,257.741094 L491.65,131.411094 C486.73,115.681094 477.03,111.561094 464.75,112.411094 C446.38,116.531094 446.38,141.001094 448.22,151.661094 C452.63,177.521094 459.32,207.801094 462.77,223.161094 C488.34,222.751094 508.17,232.211094 513.09,257.941094 Z" id="Path" fill="#8DD2CD" fill-rule="nonzero"></path>
            <path d="M462.7,223.201094 C434.92,223.641094 401.33,234.291094 375.54,243.701094 L340.19,225.471094 L341.29,262.071094 C347.29,264.571094 363.41,266.071094 372.52,266.851094 C372.52,266.851094 514.29,258.691094 514.140119,257.741094 C514.07,257.371094 513.99,257.071094 513.92,256.741094 C509,231.021094 488.34,222.741094 462.7,223.231094 L462.7,223.201094 Z" id="Path" fill="#B6EDE8" fill-rule="nonzero"></path>
            <path d="M340.19,225.471094 L310.42,240.471094 C310.42,240.471094 308.95,246.341094 316.6,255.681094 C324.25,265.021094 341.29,262.151094 341.29,262.151094 L340.19,225.471094 Z" id="Path" fill="#8DD2CD" fill-rule="nonzero"></path>
            <path d="M261.11,176.531094 L297.34,251.641094 L303.52,251.641094 L267.29,176.531094 C265.74399,173.314421 262.478781,171.280484 258.91,171.310753 L252.73,171.310753 C256.2919,171.304781 259.545216,173.331309 261.11,176.531094 Z" id="Path" fill="#71767C" fill-rule="nonzero"></path>
            <path d="M303.52,251.641094 L297.42,251.641094 L261.19,176.531094 C259.64399,173.314421 256.378781,171.280484 252.81,171.310753 L144.48,171.310753 C139.393056,171.310753 135.258454,175.414295 135.22,180.501094 C135.224368,181.881966 135.524431,183.245887 136.1,184.501094 L172.78,260.501094 L387.44,260.501094 C389.265443,260.498499 391.014344,259.7674 392.29854,258.470061 C393.582736,257.172723 394.295991,255.416469 394.280263,253.591094 L394.280263,251.091094 L303.52,251.611094 L303.52,251.641094 Z" id="Path" fill="#43464A" fill-rule="nonzero"></path>
            <polygon id="Path" fill="#8A9097" fill-rule="nonzero" points="0 260.001094 272.28 260.001094 272.28 272.501094 0 272.501094"></polygon>
            <polygon id="Path" fill="#43464A" fill-rule="nonzero" points="45.34 217.241094 74.52 217.241094 74.52 260.531094 45.34 260.531094"></polygon>
            <path d="M272.28,260.001094 L272.28,272.501094 L327,272.501094 L310.86,585.001094 L323.06,585.001094 L332.91,394.071094 L420.22,394.071094 L430.07,585.001094 L442.41,585.001094 L426.24,272.511094 L477.76,272.511094 L477.76,260.001094 L272.28,260.001094 Z M333.65,381.481094 L339.31,272.481094 L413.9,272.481094 L419.56,381.481094 L333.65,381.481094 Z" id="Shape" fill="#C1C7CC" fill-rule="nonzero"></path>
        </g>
    </g>
</svg>